<svg xmlns="http://www.w3.org/2000/svg" width="18.86" height="17.602" viewBox="0 0 18.86 17.602">
  <g id="Group_495" data-name="Group 495" transform="translate(-44.644 -259.398)">
    <path id="Shape" d="M14.439,17.6H4.42A4.285,4.285,0,0,1,0,13.477V7.667A4.285,4.285,0,0,1,4.42,3.542H7.366A.715.715,0,0,1,8.1,4.23a.715.715,0,0,1-.738.688H4.42a2.856,2.856,0,0,0-2.947,2.75v5.809A2.857,2.857,0,0,0,4.42,16.228H14.439a2.858,2.858,0,0,0,2.948-2.751V9.524a.738.738,0,0,1,1.473,0v3.953A4.286,4.286,0,0,1,14.439,17.6Zm-.221-8.938a4.5,4.5,0,0,1-4.64-4.332A4.5,4.5,0,0,1,14.218,0,4.5,4.5,0,0,1,18.86,4.333,4.5,4.5,0,0,1,14.218,8.664Zm0-7.288a3.071,3.071,0,0,0-3.167,2.957,3.07,3.07,0,0,0,3.167,2.956,3.071,3.071,0,0,0,3.168-2.956A3.072,3.072,0,0,0,14.218,1.376Z" transform="translate(44.644 259.398)" fill="#363b64"/>
    <path id="Shape-2" data-name="Shape" d="M6.483,10.208A4.6,4.6,0,0,1,3.8,9.366L.291,6.873a.674.674,0,0,1-.285-.461.652.652,0,0,1,.145-.5.753.753,0,0,1,.587-.271.761.761,0,0,1,.445.141L4.695,8.272a3.124,3.124,0,0,0,3.575,0L9.5,7.4a.764.764,0,0,1,.447-.142.748.748,0,0,1,.585.27.651.651,0,0,1,.146.5.675.675,0,0,1-.283.462l-1.229.878A4.662,4.662,0,0,1,6.483,10.208Zm4.789-6.7a.714.714,0,0,1-.737-.688V1.376A.715.715,0,0,1,9.8.688.714.714,0,0,1,10.535,0h.737a.714.714,0,0,1,.737.688V2.819A.714.714,0,0,1,11.271,3.507Z" transform="translate(47.59 261.976)" fill="#e1393f"/>
  </g>
</svg>
