<svg xmlns="http://www.w3.org/2000/svg" width="17.271" height="14.473" viewBox="0 0 17.271 14.473">
  <g id="Icon_feather-users" data-name="Icon feather-users" transform="translate(-0.75 -3.681)">
    <path id="Path_383" data-name="Path 383" d="M12.969,26.8V25.367A2.867,2.867,0,0,0,10.1,22.5H4.367A2.867,2.867,0,0,0,1.5,25.367V26.8" transform="translate(0 -9.398)" fill="none" stroke="#363b64" stroke-linecap="round" stroke-linejoin="round" stroke-width="1.5"/>
    <path id="Path_384" data-name="Path 384" d="M13.235,7.367A2.867,2.867,0,1,1,10.367,4.5,2.867,2.867,0,0,1,13.235,7.367Z" transform="translate(-3.133)" fill="none" stroke="#363b64" stroke-linecap="round" stroke-linejoin="round" stroke-width="1.5"/>
    <path id="Path_385" data-name="Path 385" d="M32.151,26.9V25.469A2.867,2.867,0,0,0,30,22.7" transform="translate(-14.88 -9.5)" fill="none" stroke="#363b64" stroke-linecap="round" stroke-linejoin="round" stroke-width="1.5"/>
    <path id="Path_386" data-name="Path 386" d="M24,4.7a2.867,2.867,0,0,1,0,5.556" transform="translate(-11.747 -0.102)" fill="none" stroke="#e91d2d" stroke-linecap="round" stroke-linejoin="round" stroke-width="1.5"/>
  </g>
</svg>
